<svg id="logo_onsenui_v2.svg" xmlns="http://www.w3.org/2000/svg" width="172.406" height="22" viewBox="0 0 172.406 22">
  <defs>
    <style>
      .cls-1 {
        fill: #ff1a33;
      }

      .cls-1, .cls-2 {
        fill-rule: evenodd;
      }

      .cls-2 {
        fill: #959595;
      }
    </style>
  </defs>
  <path id="logo_onsen_ui" class="cls-1" d="M302.736,131.021c-0.706-2.5-3.775-3.7-2.929-2.817a5.147,5.147,0,0,1,1.235,2.007c0.988,3.522-2.716,7.572-8.15,9.121-5.433,1.514-10.725.035-11.748-3.486a4.857,4.857,0,0,1,0-2.36c0.282-1.2-1.729,1.409-.988,3.909,1.164,4.085,6.809,5.67,13.125,3.874C299.631,139.508,303.9,135.106,302.736,131.021Zm-8.75,3.909c7.444-3.627,2.47-11.305,5.892-14.932,0,0-3.14-.141-4.057,1.691C294.868,123.555,298.008,129.577,293.986,134.93Zm-2.364.247a4.115,4.115,0,0,0,.882-0.881c1.729-2.43-.917-8.8,1.9-12.889-8.043,3.2-1.975,14.58-5.5,12.96a3.426,3.426,0,0,1-1.588-2.078c-0.6-1.9-.952-6.762,2.54-9.614-2.822.81-5.327,2.958-5.75,5.423-0.459,2.606.6,5.388-1.129,7.466C286.577,136.48,289.541,136.761,291.622,135.177Zm17.006-1.339a7.1,7.1,0,0,1,1.8-5.036,5.76,5.76,0,0,1,4.339-1.9,4.654,4.654,0,0,1,3.528,1.408,5.245,5.245,0,0,1,1.376,3.8,7.174,7.174,0,0,1-.705,3.134,6.533,6.533,0,0,1-1.306,1.866,6.9,6.9,0,0,1-1.693,1.233,5.708,5.708,0,0,1-2.54.564,4.891,4.891,0,0,1-2.54-.67,4.205,4.205,0,0,1-1.729-1.866A6.927,6.927,0,0,1,308.628,133.838Zm1.552,0.071a4.144,4.144,0,0,0,.423,1.866,3.1,3.1,0,0,0,1.27,1.338,3.615,3.615,0,0,0,1.764.494,3.549,3.549,0,0,0,1.694-.423,5.01,5.01,0,0,0,1.446-1.162,5.538,5.538,0,0,0,1.023-1.867,6.73,6.73,0,0,0,.353-2.183,3.7,3.7,0,0,0-.988-2.747,3.2,3.2,0,0,0-2.4-1.021,4.253,4.253,0,0,0-3.21,1.549A5.971,5.971,0,0,0,310.18,133.909Zm10.76,4.789,1.764-8.417h1.306l-0.318,1.48a7.76,7.76,0,0,1,1.588-1.268,3.342,3.342,0,0,1,1.517-.388,2.278,2.278,0,0,1,1.623.564,1.906,1.906,0,0,1,.6,1.479,8.036,8.036,0,0,1-.212,1.479L327.75,138.7H326.3l1.129-5.317a7.148,7.148,0,0,0,.177-1.163,0.9,0.9,0,0,0-.283-0.669,1.159,1.159,0,0,0-.846-0.246,2.865,2.865,0,0,0-1.976.774,5.259,5.259,0,0,0-1.27,2.712l-0.882,3.909H320.94Zm9.667-2.888,1.447-.07a3,3,0,0,0,.176,1.057,1.516,1.516,0,0,0,.706.7,2.622,2.622,0,0,0,1.2.282,2.247,2.247,0,0,0,1.412-.388,1.145,1.145,0,0,0,.494-0.88,1.117,1.117,0,0,0-.283-0.7,4.722,4.722,0,0,0-1.446-.81c-0.741-.316-1.235-0.563-1.447-0.669a2.141,2.141,0,0,1-.811-0.774,1.919,1.919,0,0,1-.282-1.022,2.379,2.379,0,0,1,.776-1.725,3.123,3.123,0,0,1,2.222-.705,3.43,3.43,0,0,1,2.4.74,2.431,2.431,0,0,1,.847,1.937l-1.411.1a1.724,1.724,0,0,0-.529-1.2,2.219,2.219,0,0,0-1.447-.458,1.706,1.706,0,0,0-1.164.352,0.868,0.868,0,0,0-.07,1.444,5.042,5.042,0,0,0,1.234.634,8.72,8.72,0,0,1,2.082,1.127,2.1,2.1,0,0,1,.67,1.585,2.4,2.4,0,0,1-.388,1.233,2.66,2.66,0,0,1-1.164.95,4.316,4.316,0,0,1-1.87.353,4.258,4.258,0,0,1-2.47-.7A2.877,2.877,0,0,1,330.607,135.81Zm14.924,0,1.411,0.141a4.374,4.374,0,0,1-1.376,1.972,3.755,3.755,0,0,1-2.575.951,3.6,3.6,0,0,1-1.729-.422,2.794,2.794,0,0,1-1.2-1.268,4.032,4.032,0,0,1-.424-1.867,6.085,6.085,0,0,1,.635-2.676,4.774,4.774,0,0,1,1.658-1.937,4.053,4.053,0,0,1,2.188-.634,3.165,3.165,0,0,1,2.4.951,3.547,3.547,0,0,1,.917,2.536,7.629,7.629,0,0,1-.106,1.267h-6.209a2.18,2.18,0,0,0-.035.458,2.725,2.725,0,0,0,.529,1.8,1.686,1.686,0,0,0,1.34.634,2.557,2.557,0,0,0,1.447-.493A2.849,2.849,0,0,0,345.531,135.81Zm-4.163-2.077H346.1v-0.317a2.389,2.389,0,0,0-.529-1.655,1.758,1.758,0,0,0-1.376-.564,2.666,2.666,0,0,0-1.693.634A3.864,3.864,0,0,0,341.368,133.733Zm7.3,4.965,1.764-8.417h1.305l-0.317,1.48a7.757,7.757,0,0,1,1.587-1.268,3.342,3.342,0,0,1,1.517-.388,2.277,2.277,0,0,1,1.623.564,1.906,1.906,0,0,1,.6,1.479,7.949,7.949,0,0,1-.212,1.479L355.48,138.7h-1.446l1.129-5.317a7.232,7.232,0,0,0,.176-1.163,0.9,0.9,0,0,0-.282-0.669,1.163,1.163,0,0,0-.847-0.246,2.865,2.865,0,0,0-1.976.774,5.267,5.267,0,0,0-1.27,2.712l-0.811,3.909h-1.482Zm15.488-11.692h2.4l-1.305,6.375-0.318,1.584a1.458,1.458,0,0,0-.035.388,1.6,1.6,0,0,0,.494,1.162,2.135,2.135,0,0,0,1.482.458,2.935,2.935,0,0,0,1.446-.317,2.029,2.029,0,0,0,.882-0.986,9.78,9.78,0,0,0,.635-2.219l1.341-6.409h2.434l-1.34,6.409a11.9,11.9,0,0,1-.988,3.1,4.264,4.264,0,0,1-1.694,1.761,5.362,5.362,0,0,1-2.857.669,4.427,4.427,0,0,1-3.14-1.021,3.278,3.278,0,0,1-1.094-2.571,5.163,5.163,0,0,1,.071-0.7c0.035-.177.105-0.67,0.282-1.444Zm10.972,11.727,2.47-11.762H380l-2.47,11.762h-2.4Z" transform="translate(-279.969 -120)"/>
  <path id="Version2_copy_2" data-name="Version2 copy 2" class="cls-2" d="M390.872,139.244l6.674-12.169h-1.677l-4.341,7.968q-0.49.913-1.254,2.474-0.115-1.212-.506-3.188l-1.411-7.254h-1.569l2.341,12.169h1.743Zm10.513-1.536a2.677,2.677,0,0,1-1.519.506,1.777,1.777,0,0,1-1.39-.651,2.792,2.792,0,0,1-.569-1.889,3.534,3.534,0,0,1,.034-0.465h6.491a7.923,7.923,0,0,0,.116-1.328,3.7,3.7,0,0,0-.942-2.673,3.333,3.333,0,0,0-2.519-.979,4.278,4.278,0,0,0-2.3.66,4.776,4.776,0,0,0-1.731,2.017,6.279,6.279,0,0,0-.668,2.8,4.38,4.38,0,0,0,.428,1.968,2.969,2.969,0,0,0,1.245,1.315,3.645,3.645,0,0,0,1.8.453,4,4,0,0,0,2.7-.98,4.421,4.421,0,0,0,1.448-2.067l-1.461-.149A3.3,3.3,0,0,1,401.385,137.708Zm-2.021-5.645a2.673,2.673,0,0,1,1.756-.664,1.9,1.9,0,0,1,1.452.6,2.434,2.434,0,0,1,.565,1.731c0,0.066,0,.177-0.008.332h-4.948A3.988,3.988,0,0,1,399.364,132.063Zm7.591,7.181,0.747-3.537a6.7,6.7,0,0,1,1.3-3.162,2.315,2.315,0,0,1,1.619-.88,1.428,1.428,0,0,1,.855.282l0.614-1.394a2.611,2.611,0,0,0-1.1-.324,2.2,2.2,0,0,0-1.332.49,6.121,6.121,0,0,0-1.332,1.51l0.373-1.8H407.37l-1.843,8.816h1.428Zm5.387-.557a4.39,4.39,0,0,0,2.6.756,4.64,4.64,0,0,0,1.946-.378,2.778,2.778,0,0,0,1.229-1.008,2.372,2.372,0,0,0,.4-1.287,2.243,2.243,0,0,0-.714-1.677,8.685,8.685,0,0,0-2.175-1.179,6.215,6.215,0,0,1-1.286-.664,0.935,0.935,0,0,1-.374-0.73,1.008,1.008,0,0,1,.432-0.772,1.851,1.851,0,0,1,1.212-.357,2.208,2.208,0,0,1,1.5.465,1.69,1.69,0,0,1,.565,1.262l1.469-.1a2.666,2.666,0,0,0-.9-2.021,3.7,3.7,0,0,0-2.527-.768,3.352,3.352,0,0,0-2.324.747,2.329,2.329,0,0,0-.831,1.793,1.986,1.986,0,0,0,.283,1.058,2.46,2.46,0,0,0,.838.8,14.032,14.032,0,0,0,1.523.718,4.758,4.758,0,0,1,1.5.859,1.122,1.122,0,0,1,.3.739,1.174,1.174,0,0,1-.5.938,2.358,2.358,0,0,1-1.494.4,2.575,2.575,0,0,1-1.249-.291,1.586,1.586,0,0,1-.735-0.747,2.765,2.765,0,0,1-.2-1.1l-1.5.091a2.675,2.675,0,0,0,1.012,2.457h0Zm10.974-9.911,0.357-1.7h-1.494l-0.357,1.7h1.494Zm-2.183,10.468,1.843-8.816h-1.5l-1.843,8.816h1.5Zm3.042-1.486A3.034,3.034,0,0,0,425.462,139a3.982,3.982,0,0,0,1.872.44,4.489,4.489,0,0,0,2.386-.7,4.565,4.565,0,0,0,1.747-2,6.559,6.559,0,0,0,.615-2.827,3.68,3.68,0,0,0-.976-2.689,3.433,3.433,0,0,0-2.569-1,4.211,4.211,0,0,0-3.287,1.394,6.161,6.161,0,0,0-1.519,4.275A3.79,3.79,0,0,0,424.175,137.758Zm1.278-3.541a4.417,4.417,0,0,1,.689-1.506,3.442,3.442,0,0,1,1.05-.984,2.528,2.528,0,0,1,1.287-.336,1.962,1.962,0,0,1,1.515.66,2.655,2.655,0,0,1,.6,1.855,5.979,5.979,0,0,1-.718,2.677,4.035,4.035,0,0,1-.693.909,2.771,2.771,0,0,1-.88.594,2.49,2.49,0,0,1-.955.195,1.984,1.984,0,0,1-1.519-.644,2.68,2.68,0,0,1-.6-1.888A6.293,6.293,0,0,1,425.453,134.217Zm8.969,5.027,0.855-4.1A5.306,5.306,0,0,1,436.6,132.3a2.951,2.951,0,0,1,2.055-.83,1.262,1.262,0,0,1,.876.274,0.916,0.916,0,0,1,.3.714,6.433,6.433,0,0,1-.175,1.2l-1.17,5.587h1.5l1.121-5.338a8.65,8.65,0,0,0,.216-1.544,2.045,2.045,0,0,0-.61-1.552,2.34,2.34,0,0,0-1.681-.581,3.288,3.288,0,0,0-1.577.415,7.214,7.214,0,0,0-1.661,1.32l0.324-1.536h-1.361l-1.843,8.816h1.5Zm16.659,0,0.291-1.378h-5.446a5.193,5.193,0,0,1,.818-1.063,17.242,17.242,0,0,1,1.656-1.444,22.921,22.921,0,0,0,3.121-2.748,3.77,3.77,0,0,0,.863-2.332,3.341,3.341,0,0,0-.423-1.611,2.9,2.9,0,0,0-1.266-1.212,4.071,4.071,0,0,0-1.88-.431,3.74,3.74,0,0,0-2.594.934,4,4,0,0,0-1.258,2.552l1.47,0.216a3.522,3.522,0,0,1,.913-1.905,2.125,2.125,0,0,1,1.494-.594,1.994,1.994,0,0,1,1.457.586,1.925,1.925,0,0,1,.593,1.423,2.209,2.209,0,0,1-.191.922,4.637,4.637,0,0,1-.9,1.27,18.741,18.741,0,0,1-1.611,1.386q-1.943,1.553-2.623,2.212a6.057,6.057,0,0,0-1.091,1.4,6.526,6.526,0,0,0-.644,1.822h7.255Z" transform="translate(-279.969 -120)"/>
</svg>
